<?xml version="1.0" encoding="UTF-8"?>
<svg fill="none" viewBox="0 0 80 96" xmlns="http://www.w3.org/2000/svg">
<path d="m40 95.948c22.091 0 40-17.909 40-40s-17.909-40-40-40-40 17.909-40 40 17.909 40 40 40z" fill="#4382FF"/>
<path d="m40 95.948c22.091 0 40-17.909 40-40s-17.909-40-40-40-40 17.909-40 40 17.909 40 40 40z" fill="#fff" opacity=".8"/>
<path d="m50.653 0.7385-31.505 4.1029c-1.7457 0.22735-2.9765 1.8268-2.7492 3.5724l8.4814 65.125c0.2273 1.7457 1.8268 2.9765 3.5724 2.7492l31.505-4.1029c1.7457-0.2274 2.9765-1.8268 2.7492-3.5725l-8.4814-65.125c-0.2273-1.7457-1.8268-2.9765-3.5724-2.7492z" fill="#4382FF"/>
</svg>
