<?xml version="1.0" encoding="UTF-8"?>
<svg fill="none" viewBox="0 0 80 81" xmlns="http://www.w3.org/2000/svg">
<path d="m40 80.474c22.091 0 40-17.909 40-40s-17.909-40-40-40-40 17.909-40 40 17.909 40 40 40z" fill="#4382FF"/>
<path d="m40 80.474c22.091 0 40-17.909 40-40s-17.909-40-40-40-40 17.909-40 40 17.909 40 40 40z" fill="#fff" opacity=".8"/>
<path d="m52 5.0001c7.7778 0 14.389 2.4306 19.833 7.2917 5.4445 4.8611 8.1667 10.743 8.1667 17.646 0 4.2778-1.5312 7.9236-4.5938 10.938-3.0624 3.0139-6.7326 4.5209-11.01 4.5209h-5.3958c-1.3611 0-2.4792 0.4618-3.3542 1.3854s-1.3125 2.0173-1.3125 3.2812c0 1.1667 0.3889 2.1875 1.1667 3.0625 0.7778 0.9722 1.1667 2.0417 1.1667 3.2084 0 1.2638-0.4618 2.3576-1.3855 3.2812-0.9236 0.9236-2.0173 1.3854-3.2812 1.3854-7.7778 0-14.389-2.7222-19.833-8.1666-5.4445-5.4445-8.1667-12.056-8.1667-19.833s2.7222-14.389 8.1667-19.833c5.4444-5.4445 12.056-8.1667 19.833-8.1667z" fill="#4382FF"/>
</svg>
