<?xml version="1.0" encoding="UTF-8"?>
<svg fill="none" viewBox="0 0 80 85" xmlns="http://www.w3.org/2000/svg">
<path d="m40.882 84.229c19.304 0 34.953-15.649 34.953-34.953s-15.649-34.953-34.953-34.953c-19.304 0-34.953 15.649-34.953 34.953s15.649 34.953 34.953 34.953z" fill="#4382FF"/>
<path d="m40.882 84.229c19.304 0 34.953-15.649 34.953-34.953s-15.649-34.953-34.953-34.953c-19.304 0-34.953 15.649-34.953 34.953s15.649 34.953 34.953 34.953z" fill="#fff" opacity=".8"/>
<path d="m54.328 4.9868 3.1849 20.31c0.0968 0.6201 0.0705 1.2532-0.0774 1.8631-0.1479 0.61-0.4145 1.1848-0.7845 1.6918-0.3701 0.5069-0.8364 0.9359-1.3723 1.2626s-1.1308 0.5446-1.751 0.6414l-35.844 5.6216-6.2235 6.9846-0.5465-5.9241-2.2089 0.3448c-1.2504 0.1938-2.5266-0.1163-3.5487-0.8621-1.0221-0.7459-1.7067-1.8667-1.9037-3.1165l-3.1947-20.31c-0.19559-1.2523 0.11393-2.531 0.86057-3.5551 0.74663-1.0242 1.8693-1.7101 3.1214-1.907l44.836-7.027c1.2509-0.19366 2.5275 0.11684 3.5497 0.86337 1.0222 0.74652 1.7065 1.8681 1.9027 3.1186z" fill="#4382FF"/>
</svg>
