<?xml version="1.0" encoding="UTF-8"?>
<svg fill="none" viewBox="0 0 91 85" xmlns="http://www.w3.org/2000/svg">
<path d="m40 84.801c22.091 0 40-17.909 40-40s-17.909-40-40-40-40 17.909-40 40 17.909 40 40 40z" fill="#4382FF"/>
<path d="m40 84.801c22.091 0 40-17.909 40-40s-17.909-40-40-40-40 17.909-40 40 17.909 40 40 40z" fill="#fff" opacity=".8"/>
<path d="m64.214 7.5071-54.757 17.253c-0.5055 0.1582-0.97294 0.4089-1.3756 0.7376-0.40261 0.3288-0.7325 0.7291-0.9708 1.1781-0.23829 0.4491-0.3803 0.938-0.4179 1.4389-0.03761 0.5008 0.02993 1.0037 0.19874 1.4799l14.478 40.872c0.3411 0.9616 1.0732 1.7564 2.0356 2.2095 0.9623 0.4532 2.0761 0.5277 3.0967 0.2073l54.758-17.253c0.5052-0.1587 0.9723-0.4098 1.3745-0.7389 0.4023-0.329 0.7317-0.7296 0.9695-1.1788 0.2379-0.4492 0.3794-0.9382 0.4165-1.439 0.0372-0.5008-0.0308-1.0035-0.2-1.4796l-14.493-40.893c-0.3444-0.95442-1.0752-1.7418-2.033-2.1903-0.9578-0.44854-2.0649-0.52189-3.0799-0.20407zm-11.143 5.346c0.6288-0.1969 1.3055-0.2137 1.9444-0.0483 0.6389 0.1655 1.2115 0.5057 1.6453 0.9778 0.4339 0.4721 0.7095 1.0549 0.7921 1.6746s-0.0315 1.2486-0.328 1.8072c-0.2964 0.5585-0.7619 1.0218-1.3376 1.3311-0.5756 0.3093-1.2356 0.4508-1.8966 0.4066-0.6609-0.0442-1.2931-0.272-1.8167-0.6548-0.5237-0.3828-0.9151-0.9032-1.125-1.4957-0.1396-0.3938-0.1954-0.8098-0.1642-1.224 0.0311-0.4142 0.1486-0.8186 0.3457-1.19s0.47-0.7025 0.803-0.9744 0.7195-0.4792 1.1376-0.6101zm-31.314 9.8598c0.6288-0.1969 1.3054-0.2137 1.9443-0.0482 0.639 0.1654 1.2116 0.5057 1.6454 0.9778s0.7095 1.0548 0.7921 1.6745-0.0316 1.2486-0.328 1.8072c-0.2965 0.5586-0.7619 1.0218-1.3376 1.3311s-1.2357 0.4508-1.8966 0.4066c-0.661-0.0441-1.2932-0.272-1.8168-0.6548-0.5236-0.3827-0.9151-0.9032-1.125-1.4956-0.1395-0.3939-0.1953-0.8098-0.1642-1.2241 0.0312-0.4142 0.1487-0.8186 0.3458-1.1899 0.1971-0.3714 0.4699-0.7025 0.8029-0.9744s0.7196-0.4792 1.1377-0.6102z" fill="#4382FF"/>
</svg>
